<?xml version="1.0" encoding="UTF-8"?>
<!DOCTYPE svg PUBLIC "-//W3C//DTD SVG 1.1//EN" "http://www.w3.org/Graphics/SVG/1.1/DTD/svg11.dtd">
<!-- Creator: CorelDRAW 2021 (64 Bit) -->
<svg xmlns="http://www.w3.org/2000/svg" xml:space="preserve" width="33.917mm" height="39.4364mm" version="1.1" style="shape-rendering:geometricPrecision; text-rendering:geometricPrecision; image-rendering:optimizeQuality; fill-rule:evenodd; clip-rule:evenodd"
viewBox="0 0 195.52 227.34"
 xmlns:xlink="http://www.w3.org/1999/xlink"
 xmlns:xodm="http://www.corel.com/coreldraw/odm/2003">
 <defs>
  <style type="text/css">
   <![CDATA[
    .fil2 {fill:#003664}
    .fil0 {fill:#004581}
    .fil1 {fill:#E5B200}
   ]]>
  </style>
 </defs>
 <g id="Camada_x0020_1">
  <metadata id="CorelCorpID_0Corel-Layer"/>
  <g id="_2227230181760">
   <path class="fil0" d="M25.23 226.37l8.61 -0 0 -15.31c0,-0.85 -0,-1.7 -0.02,-2.55 -0.02,-0.79 -0.13,-1.64 -0.13,-2.39 0.52,1.08 0.63,2.57 2.03,5.36l7.47 14.89 8.68 -0 -0 -34.2 -8.66 0.01 0 15.29c0,1.66 0.16,3.36 0.15,4.95 -0.12,-0.17 -0.07,-0.07 -0.16,-0.32l-0.75 -2.5c-0.35,-0.98 -0.73,-1.68 -1.15,-2.54 -0.83,-1.69 -1.64,-3.3 -2.49,-4.99l-4.93 -9.91 -8.65 0 0 34.23z"/>
   <path class="fil0" d="M169.58 200.49c0.97,-0.15 3.4,-0.06 4.47,-0.01 1.53,0.06 2.63,0.28 3.16,1.35 0.47,0.97 0.49,2.79 -0.04,3.73 -0.54,0.97 -1.63,1.3 -3.12,1.3l-4.47 -0.03 0 -6.34zm11.87 9.97c2.55,-1.4 4.25,-3.58 4.48,-7.58 0.22,-3.99 -0.86,-7.27 -3.21,-8.85 -2.62,-1.76 -6.5,-1.89 -10.17,-1.89 -0.97,0 -11.26,-0.07 -11.94,0.03l-0 34.23 8.96 0 -0 -11.8c1.17,-0.07 3.83,-0.11 4.91,0.07 1.5,0.24 2.27,0.98 2.6,2.43 0.53,2.27 -0.11,7.23 0.74,9.31l9.15 -0 0 -1.16c-0.18,-0.34 -0.4,-0.17 -0.59,-0.73 -0.92,-2.69 1.02,-10.78 -3.25,-13.3 -0.73,-0.43 -1.48,-0.6 -1.69,-0.75z"/>
   <path class="fil0" d="M65.85 227.34l1.81 0c0.41,-0.14 1.81,-0.25 2.47,-0.42 0.78,-0.2 1.42,-0.46 2.1,-0.8 0.75,-0.37 1.16,-0.69 1.76,-1.14 0.71,-0.53 1.19,-1.26 1.48,-1.47l0.46 2.84 5.86 0.02 0 -18.75c-1.06,-0.1 -11.9,-0.11 -12.44,0.03l0 7.22 4.07 0.04c-0.59,3.84 -4.81,4.99 -7.47,3.64 -2.58,-1.32 -3.12,-5.27 -3.15,-8.9 -0.03,-3.67 0.64,-7.58 2.91,-9.14 2.17,-1.5 5.43,-0.87 6.72,2.32 0.13,0.33 0.19,0.91 0.49,1.12l8.52 -0c-0.53,-5.9 -3.59,-10.85 -9.22,-12.26 -0.72,-0.18 -2.12,-0.28 -2.62,-0.44l-2.55 0c-1.02,0.4 -6.14,0.04 -10,5.41 -4.51,6.28 -4.38,18.22 -0.65,24.67l1.19 1.72c1.26,1.6 3.04,2.94 5.07,3.64 0.49,0.17 1.01,0.3 1.53,0.4 0.46,0.09 1.32,0.11 1.67,0.24z"/>
   <path class="fil0" d="M9.31 200.34c1.72,0 12.8,0.12 13.5,-0.05l0 -8.16 -22.62 -0 -0 34.26 23.2 0 -0.01 -8.34 -14.04 0c-0.11,-0.46 -0.09,-4.67 -0.03,-5.3l11.42 -0.01 0 -7.85 -11.44 0 0.02 -4.55z"/>
   <path class="fil0" d="M93.66 200.34l13.52 -0 0 -8.21 -22.63 0.01 0 34.25 23.19 0 0 -8.34 -14.09 -0.02 0.01 -5.26c1.99,-0.28 10.28,0.23 11.44,-0.08l0 -7.8 -11.45 -0.04 0.01 -4.52z"/>
   <path class="fil0" d="M118.7 207.51l-0.03 -6.97c1.72,0 3.76,-0.1 5.4,0.21 1.73,0.33 2.27,1.35 2.28,3.26 0.03,4.19 -3.59,3.5 -7.65,3.5zm-9.12 18.86c2.21,0 7.19,0.09 9.08,-0.02l-0 -10.45 5.83 0c1.74,0 3.49,-0.37 4.88,-1.02 4.53,-2.1 5.88,-6.9 5.59,-12.1 -0.21,-3.72 -1.69,-6.57 -3.64,-8.15 -2.41,-1.96 -5.51,-2.5 -9.38,-2.5l-12.37 0 0 34.24z"/>
   <path class="fil0" d="M145.83 202.89l2.84 11.74 -5.68 0.04 2.85 -11.77zm-14.53 23.46l8.93 0.02 1.08 -4.52 8.88 -0.01c0.4,0.11 0.81,3.7 1.23,4.51l8.97 0.02 -9.95 -34.23 -9.05 -0.01c-0.27,0.06 -0.24,0.32 -0.41,0.91l-2.2 7.57c-0.87,2.86 -1.64,5.73 -2.49,8.59 -0.85,2.83 -1.72,5.74 -2.5,8.59 -0.78,2.85 -1.8,5.74 -2.49,8.56z"/>
   <path class="fil0" d="M-0 38.39l0 98.33c1.34,3.37 1.02,17.63 13.96,27.84 19.78,15.59 48.89,11.83 72.74,11.83l0 -51.08c-4.07,-0.01 -36.43,0.52 -38.73,-0.35 -7.24,-2.73 -5.59,-15.78 -0.74,-16.92 1.92,-0.45 33.2,0.2 39.2,-0.17 0.66,-2.23 0.64,-36.76 -0.02,-38.94 -8.3,-0.68 -35.23,0.45 -38.79,-0.12 -5.43,-0.88 -6.93,-14 0.04,-16.84 2.25,-0.92 9.8,-0.47 12.85,-0.47 8.67,0 17.51,0.16 26.16,-0.03l0 -51.06c-39.68,0 -74.05,-7.1 -86.68,37.98z"/>
   <path class="fil1" d="M98.01 176.39l38.68 0c1.21,-0.4 5.35,-0.66 7.05,-0.94 6.58,-1.08 13.64,-2.92 19.24,-6.05 19.69,-11.01 21.69,-25.01 21.69,-45.8l0 -67.39c0,-11.74 0.33,-20.25 -3.83,-30.19 -5.18,-12.38 -15.92,-18.92 -27.93,-22.72 -5.66,-1.79 -12.5,-2.24 -14.17,-2.9l-40.74 0 -0.01 50.94c6.54,0.86 18.89,0.13 26.04,0.12 3.29,-0 10.02,-0.61 12.56,0.34 3.03,1.13 4.97,4.22 5.03,8.27 0.06,3.86 -1.61,7.94 -4.15,8.66 -3.28,0.92 -33.44,-0.92 -39.49,0.4l-0.09 38.53c6.76,1.39 31.74,-0.55 38.95,0.24 3.08,0.34 4.59,4.47 4.78,8.4 0.54,11.63 -11.61,9.03 -17.15,9.02 -7.17,-0.01 -19.96,-0.77 -26.47,0.12l0.01 50.94z"/>
   <path class="fil2" d="M188.56 195.39c-0.35,-4.28 5.77,-4.8 6.34,-0.79 0.27,1.9 -1.17,3.38 -2.82,3.6 -1.8,0.25 -3.4,-1.25 -3.53,-2.81zm6.96 0.14l0 -4.28 -4.52 0c-0.29,0.14 -0.65,0.2 -0.99,0.38 -4.3,2.32 -1.34,8.66 3.18,6.9 0.69,-0.27 1.15,-0.7 1.52,-1.13 0.37,-0.43 0.63,-1.08 0.8,-1.87z"/>
   <path class="fil2" d="M192.15 195.23c0.56,-0.12 0.86,-0.25 1.04,-0.69 0.21,-0.52 0.02,-1.02 -0.28,-1.29 -0.53,-0.46 -2.18,-0.33 -3.01,-0.28l0.02 4.17 0.56 -0.04 0 -1.81c1.03,0 1.12,-0.04 1.56,0.58 0.31,0.44 0.55,0.85 0.83,1.27l0.7 -0.03c-0.17,-0.57 -0.93,-1.62 -1.41,-1.9z"/>
  </g>
 </g>
</svg>
